<mxfile>
    <diagram id="2ldadh7H5CES1Nd1rLQ5" name="Page-1">
        <mxGraphModel dx="2280" dy="920" grid="1" gridSize="10" guides="1" tooltips="1" connect="1" arrows="1" fold="1" page="1" pageScale="1" pageWidth="1654" pageHeight="1169" math="0" shadow="0">
            <root>
                <mxCell id="0"/>
                <mxCell id="1" parent="0"/>
                <mxCell id="43" value="" style="rounded=0;whiteSpace=wrap;html=1;strokeWidth=3;" vertex="1" parent="1">
                    <mxGeometry x="160" y="160" width="1360" height="880" as="geometry"/>
                </mxCell>
                <mxCell id="2" value="" style="swimlane;startSize=0;strokeWidth=2;" parent="1" vertex="1">
                    <mxGeometry x="1112" y="287" width="160" height="686" as="geometry">
                        <mxRectangle x="420" y="30" width="50" height="40" as="alternateBounds"/>
                    </mxGeometry>
                </mxCell>
                <mxCell id="3" value="" style="shape=cylinder3;whiteSpace=wrap;html=1;boundedLbl=1;backgroundOutline=1;size=15;" parent="2" vertex="1">
                    <mxGeometry x="40" y="38" width="80" height="130" as="geometry"/>
                </mxCell>
                <mxCell id="4" value="" style="shape=cylinder3;whiteSpace=wrap;html=1;boundedLbl=1;backgroundOutline=1;size=15;" parent="2" vertex="1">
                    <mxGeometry x="40" y="188" width="80" height="130" as="geometry"/>
                </mxCell>
                <mxCell id="5" value="" style="shape=cylinder3;whiteSpace=wrap;html=1;boundedLbl=1;backgroundOutline=1;size=15;" parent="2" vertex="1">
                    <mxGeometry x="40" y="358" width="80" height="130" as="geometry"/>
                </mxCell>
                <mxCell id="6" value="" style="shape=cylinder3;whiteSpace=wrap;html=1;boundedLbl=1;backgroundOutline=1;size=15;" parent="2" vertex="1">
                    <mxGeometry x="40" y="518" width="80" height="130" as="geometry"/>
                </mxCell>
                <mxCell id="7" value="HarperDB Cloud Server" style="text;strokeColor=none;fillColor=none;html=1;fontSize=24;fontStyle=1;verticalAlign=middle;align=center;" parent="1" vertex="1">
                    <mxGeometry x="1142" y="197" width="100" height="40" as="geometry"/>
                </mxCell>
                <mxCell id="9" value="" style="html=1;whiteSpace=wrap;shape=isoCube2;backgroundOutline=1;isoAngle=15;strokeWidth=3;" parent="1" vertex="1">
                    <mxGeometry x="222" y="507" width="190" height="210" as="geometry"/>
                </mxCell>
                <mxCell id="10" value="Discord App" style="text;strokeColor=none;fillColor=none;html=1;fontSize=24;fontStyle=1;verticalAlign=middle;align=center;" parent="1" vertex="1">
                    <mxGeometry x="267" y="447" width="100" height="40" as="geometry"/>
                </mxCell>
                <mxCell id="11" value="" style="swimlane;startSize=0;strokeWidth=2;" parent="1" vertex="1">
                    <mxGeometry x="552" y="290" width="450" height="680" as="geometry"/>
                </mxCell>
                <mxCell id="15" value="server.js" style="shape=process;whiteSpace=wrap;html=1;backgroundOutline=1;fontSize=24;" parent="11" vertex="1">
                    <mxGeometry x="100" y="90" width="315" height="60" as="geometry"/>
                </mxCell>
                <mxCell id="16" value="handlers.js" style="shape=process;whiteSpace=wrap;html=1;backgroundOutline=1;fontSize=24;" parent="11" vertex="1">
                    <mxGeometry x="100" y="240" width="315" height="60" as="geometry"/>
                </mxCell>
                <mxCell id="17" value="/handlers/*.js" style="shape=process;whiteSpace=wrap;html=1;backgroundOutline=1;fontSize=24;" parent="11" vertex="1">
                    <mxGeometry x="100" y="390" width="315" height="60" as="geometry"/>
                </mxCell>
                <mxCell id="18" value="/helpers/*.js" style="shape=process;whiteSpace=wrap;html=1;backgroundOutline=1;fontSize=24;" parent="11" vertex="1">
                    <mxGeometry x="100" y="540" width="315" height="60" as="geometry"/>
                </mxCell>
                <mxCell id="19" value="" style="endArrow=classic;html=1;fontSize=50;entryX=0.5;entryY=1;entryDx=0;entryDy=0;exitX=0.5;exitY=0;exitDx=0;exitDy=0;" parent="11" source="18" target="17" edge="1">
                    <mxGeometry relative="1" as="geometry">
                        <mxPoint x="-167" y="550" as="sourcePoint"/>
                        <mxPoint x="-67" y="550" as="targetPoint"/>
                    </mxGeometry>
                </mxCell>
                <mxCell id="20" value="&lt;font style=&quot;font-size: 15px&quot;&gt;requires&lt;/font&gt;" style="edgeLabel;resizable=0;html=1;align=center;verticalAlign=middle;" parent="19" connectable="0" vertex="1">
                    <mxGeometry relative="1" as="geometry"/>
                </mxCell>
                <mxCell id="21" value="" style="endArrow=classic;html=1;fontSize=50;entryX=0.5;entryY=1;entryDx=0;entryDy=0;" parent="11" target="16" edge="1">
                    <mxGeometry relative="1" as="geometry">
                        <mxPoint x="258" y="390" as="sourcePoint"/>
                        <mxPoint x="256" y="300" as="targetPoint"/>
                    </mxGeometry>
                </mxCell>
                <mxCell id="22" value="&lt;font style=&quot;font-size: 15px&quot;&gt;requires&lt;/font&gt;" style="edgeLabel;resizable=0;html=1;align=center;verticalAlign=middle;" parent="21" connectable="0" vertex="1">
                    <mxGeometry relative="1" as="geometry"/>
                </mxCell>
                <mxCell id="35" value="" style="edgeStyle=elbowEdgeStyle;elbow=horizontal;endArrow=classic;html=1;fontSize=50;exitX=0;exitY=0.5;exitDx=0;exitDy=0;entryX=0;entryY=0.5;entryDx=0;entryDy=0;" parent="11" source="11" target="15" edge="1">
                    <mxGeometry width="50" height="50" relative="1" as="geometry">
                        <mxPoint x="220" y="460" as="sourcePoint"/>
                        <mxPoint x="270" y="410" as="targetPoint"/>
                        <Array as="points">
                            <mxPoint x="30" y="230"/>
                        </Array>
                    </mxGeometry>
                </mxCell>
                <mxCell id="25" value="" style="endArrow=classic;html=1;fontSize=50;exitX=0.5;exitY=0;exitDx=0;exitDy=0;entryX=0.5;entryY=1;entryDx=0;entryDy=0;" parent="11" source="16" target="15" edge="1">
                    <mxGeometry relative="1" as="geometry">
                        <mxPoint x="298" y="249" as="sourcePoint"/>
                        <mxPoint x="298" y="159" as="targetPoint"/>
                    </mxGeometry>
                </mxCell>
                <mxCell id="26" value="&lt;font style=&quot;font-size: 15px&quot;&gt;requires&lt;/font&gt;" style="edgeLabel;resizable=0;html=1;align=center;verticalAlign=middle;" parent="25" connectable="0" vertex="1">
                    <mxGeometry relative="1" as="geometry"/>
                </mxCell>
                <mxCell id="12" value="" style="endArrow=classic;html=1;entryX=0;entryY=0.5;entryDx=0;entryDy=0;" parent="1" target="11" edge="1">
                    <mxGeometry relative="1" as="geometry">
                        <mxPoint x="372" y="632" as="sourcePoint"/>
                        <mxPoint x="477" y="624.1700000000001" as="targetPoint"/>
                    </mxGeometry>
                </mxCell>
                <mxCell id="13" value="" style="shape=message;html=1;outlineConnect=0;" parent="12" vertex="1">
                    <mxGeometry width="40" height="30" relative="1" as="geometry">
                        <mxPoint x="-20" y="-17" as="offset"/>
                    </mxGeometry>
                </mxCell>
                <mxCell id="14" value="Node Server" style="text;strokeColor=none;fillColor=none;html=1;fontSize=24;fontStyle=1;verticalAlign=middle;align=center;" parent="1" vertex="1">
                    <mxGeometry x="727" y="197" width="100" height="40" as="geometry"/>
                </mxCell>
                <mxCell id="29" value="" style="edgeStyle=elbowEdgeStyle;elbow=horizontal;endArrow=classic;html=1;fontSize=50;exitX=1;exitY=0.5;exitDx=0;exitDy=0;entryX=0;entryY=0.5;entryDx=0;entryDy=0;entryPerimeter=0;" parent="1" source="18" target="3" edge="1">
                    <mxGeometry width="50" height="50" relative="1" as="geometry">
                        <mxPoint x="772" y="747" as="sourcePoint"/>
                        <mxPoint x="1142" y="387" as="targetPoint"/>
                    </mxGeometry>
                </mxCell>
                <mxCell id="31" value="" style="edgeStyle=elbowEdgeStyle;elbow=horizontal;endArrow=classic;html=1;fontSize=50;entryX=0;entryY=0.5;entryDx=0;entryDy=0;entryPerimeter=0;exitX=1;exitY=0.5;exitDx=0;exitDy=0;" parent="1" source="18" target="5" edge="1">
                    <mxGeometry width="50" height="50" relative="1" as="geometry">
                        <mxPoint x="772" y="747" as="sourcePoint"/>
                        <mxPoint x="822" y="697" as="targetPoint"/>
                    </mxGeometry>
                </mxCell>
                <mxCell id="32" value="" style="edgeStyle=elbowEdgeStyle;elbow=horizontal;endArrow=classic;html=1;fontSize=50;entryX=0;entryY=0.5;entryDx=0;entryDy=0;entryPerimeter=0;exitX=1;exitY=0.5;exitDx=0;exitDy=0;" parent="1" source="18" target="6" edge="1">
                    <mxGeometry width="50" height="50" relative="1" as="geometry">
                        <mxPoint x="772" y="747" as="sourcePoint"/>
                        <mxPoint x="822" y="697" as="targetPoint"/>
                    </mxGeometry>
                </mxCell>
                <mxCell id="33" value="" style="edgeStyle=elbowEdgeStyle;elbow=horizontal;endArrow=classic;html=1;fontSize=50;entryX=0;entryY=0.5;entryDx=0;entryDy=0;entryPerimeter=0;exitX=1;exitY=0.5;exitDx=0;exitDy=0;" parent="1" source="18" target="4" edge="1">
                    <mxGeometry width="50" height="50" relative="1" as="geometry">
                        <mxPoint x="772" y="747" as="sourcePoint"/>
                        <mxPoint x="822" y="697" as="targetPoint"/>
                    </mxGeometry>
                </mxCell>
                <mxCell id="34" value="" style="line;strokeWidth=2;direction=south;html=1;perimeter=backbonePerimeter;points=[];outlineConnect=0;fontSize=50;" parent="1" vertex="1">
                    <mxGeometry x="612" y="290" width="10" height="680" as="geometry"/>
                </mxCell>
                <mxCell id="38" value="classroomInfo" style="text;strokeColor=none;fillColor=none;html=1;fontSize=24;fontStyle=1;verticalAlign=middle;align=center;" parent="1" vertex="1">
                    <mxGeometry x="1322" y="367" width="100" height="40" as="geometry"/>
                </mxCell>
                <mxCell id="39" value="userInfo" style="text;strokeColor=none;fillColor=none;html=1;fontSize=24;fontStyle=1;verticalAlign=middle;align=center;" parent="1" vertex="1">
                    <mxGeometry x="1292" y="517" width="100" height="40" as="geometry"/>
                </mxCell>
                <mxCell id="40" value="assignmentInfo" style="text;strokeColor=none;fillColor=none;html=1;fontSize=24;fontStyle=1;verticalAlign=middle;align=center;" parent="1" vertex="1">
                    <mxGeometry x="1332" y="687" width="100" height="40" as="geometry"/>
                </mxCell>
                <mxCell id="41" value="submissionInfo" style="text;strokeColor=none;fillColor=none;html=1;fontSize=24;fontStyle=1;verticalAlign=middle;align=center;" parent="1" vertex="1">
                    <mxGeometry x="1332" y="857" width="100" height="40" as="geometry"/>
                </mxCell>
            </root>
        </mxGraphModel>
    </diagram>
</mxfile>